HIERARCHY
ROOT Hips
{
    OFFSET 0.000000 0.000000 0.000000
    CHANNELS 6 Xposition Yposition Zposition Zrotation Xrotation Yrotation
    JOINT Spine
    {
        OFFSET -0.000000 7.856138 0.000000
        CHANNELS 3 Zrotation Xrotation Yrotation
        JOINT Spine1
        {
            OFFSET -0.000000 20.830866 0.000000
            CHANNELS 3 Zrotation Xrotation Yrotation
            JOINT Neck
            {
                OFFSET -0.000000 20.745317 1.885938
                CHANNELS 3 Zrotation Xrotation Yrotation
                JOINT Head
                {
                    OFFSET -0.000000 13.412918 -1.916131
                    CHANNELS 3 Zrotation Xrotation Yrotation
                    End Site
                    {
                        OFFSET -0.000000 23.951641 0.000000
                    }
                }
            }
            JOINT LeftShoulder
            {
                OFFSET 3.826675 19.078362 -0.073511
                CHANNELS 3 Zrotation Xrotation Yrotation
                JOINT LeftArm
                {
                    OFFSET 10.442133 0.000000 0.000000
                    CHANNELS 3 Zrotation Xrotation Yrotation
                    JOINT LeftForeArm
                    {
                        OFFSET 37.051945 0.000000 0.000000
                        CHANNELS 3 Zrotation Xrotation Yrotation
                        JOINT LeftHand
                        {
                            OFFSET 24.394852 0.000000 0.000000
                            CHANNELS 3 Zrotation Xrotation Yrotation
                            End Site
                            {
                                OFFSET 14.370985 0.000000 0.000000
                            }
                        }
                    }
                }
            }
            JOINT RightShoulder
            {
                OFFSET -3.827599 19.078362 -0.073511
                CHANNELS 3 Zrotation Xrotation Yrotation
                JOINT RightArm
                {
                    OFFSET -10.442133 0.000000 0.000000
                    CHANNELS 3 Zrotation Xrotation Yrotation
                    JOINT RightForeArm
                    {
                        OFFSET -37.051945 0.000000 0.000000
                        CHANNELS 3 Zrotation Xrotation Yrotation
                        JOINT RightHand
                        {
                            OFFSET -24.394852 0.000000 0.000000
                            CHANNELS 3 Zrotation Xrotation Yrotation
                            End Site
                            {
                                OFFSET -14.370985 0.000000 0.000000
                            }
                        }
                    }
                }
            }
        }
    }
    JOINT LeftUpLeg
    {
        OFFSET 9.580656 0.000000 0.000000
        CHANNELS 3 Zrotation Xrotation Yrotation
        JOINT LeftLeg
        {
            OFFSET -0.000000 -43.769192 0.000000
            CHANNELS 3 Zrotation Xrotation Yrotation
            JOINT LeftFoot
            {
                OFFSET -0.000000 -42.531967 0.000000
                CHANNELS 3 Zrotation Xrotation Yrotation
                JOINT LeftToeBase
                {
                    OFFSET -0.000000 -6.227426 14.370985
                    CHANNELS 3 Zrotation Xrotation Yrotation
                    End Site
                    {
                        OFFSET -0.000000 0.000000 3.832262
                    }
                }
            }
        }
    }
    JOINT RightUpLeg
    {
        OFFSET -9.580656 0.000000 0.000000
        CHANNELS 3 Zrotation Xrotation Yrotation
        JOINT RightLeg
        {
            OFFSET -0.000000 -43.769192 0.000000
            CHANNELS 3 Zrotation Xrotation Yrotation
            JOINT RightFoot
            {
                OFFSET -0.000000 -42.531967 0.000000
                CHANNELS 3 Zrotation Xrotation Yrotation
                JOINT RightToeBase
                {
                    OFFSET -0.000000 -6.227426 14.370985
                    CHANNELS 3 Zrotation Xrotation Yrotation
                    End Site
                    {
                        OFFSET -0.000000 0.000000 3.832262
                    }
                }
            }
        }
    }
}
MOTION
Frames:    8
Frame Time:    0.008333
-8.819712    93.621155    27.003866    -1.268015    -0.473805    90.402397    0.192417    -6.129366    -0.429166    0.482254    1.138432    -0.444383    5.870503    9.913095    1.526285    0.866461    3.146380    1.341544    13.725515    1.225103    3.179719    -10.446764    6.535450    -13.918344    2.302515    -1.100830    -1.984426    15.852463    -1.156946    -0.689293    -13.287522    1.688491    4.774817    17.259987    6.923339    5.430184    -2.468029    -2.567673    1.877177    -8.880880    -2.473251    -0.696384    4.046358    3.861966    -0.348155    -2.865057    -1.214061    0.532021    -0.489972    -4.222508    22.721933    0.000000    0.000000    0.000000    -3.684183    -0.500227    0.361746    3.372379    4.214909    -0.710793    0.733622    -5.600139    -13.969505    0.000000    0.000000    0.000000    
-8.815076    93.621193    27.008251    -1.270364    -0.473125    90.400101    0.197666    -6.160371    -0.427158    0.462727    1.181136    -0.442639    5.866737    9.860038    1.517108    0.892238    3.158868    1.332290    13.760168    1.180794    3.229292    -10.470556    6.446801    -13.948617    2.249678    -0.928355    -1.871262    16.273094    -1.015846    -0.869007    -13.289513    1.655117    4.734921    17.281294    6.936411    5.424487    -2.497852    -2.526704    1.823255    -8.625312    -2.433276    -0.713120    4.050446    3.872372    -0.344592    -2.871467    -1.233720    0.538070    -0.473327    -4.212324    22.714922    0.000000    0.000000    0.000000    -3.683814    -0.497822    0.369474    3.376022    4.210625    -0.713215    0.739161    -5.601928    -13.976892    0.000000    0.000000    0.000000    
-8.809430    93.621689    27.011684    -1.270338    -0.475674    90.401390    0.209324    -6.183106    -0.437088    0.454866    1.206990    -0.453291    5.860549    9.853487    1.513603    0.877553    3.119565    1.327238    13.766994    1.122835    3.288818    -10.474609    6.399018    -13.949033    2.224840    -0.878087    -1.798646    16.321173    -0.985221    -0.990576    -13.326243    1.612630    4.743246    17.319181    6.884265    5.396049    -2.491513    -2.432436    1.758797    -8.415965    -2.345696    -0.660432    4.052730    3.881805    -0.346890    -2.867451    -1.248319    0.570615    -0.478699    -4.200637    22.690401    0.000000    0.000000    0.000000    -3.680224    -0.490232    0.356512    3.379927    4.199823    -0.718632    0.751416    -5.593416    -13.966461    0.000000    0.000000    0.000000    
-8.805085    93.622124    27.016323    -1.266247    -0.473923    90.404381    0.194542    -6.203839    -0.427253    0.459981    1.249864    -0.442999    5.874177    9.797869    1.483188    0.880361    3.122549    1.292049    13.801973    1.069593    3.321099    -10.492043    6.311450    -13.969067    2.163132    -0.893254    -1.737554    16.538092    -0.998550    -0.949708    -13.331677    1.565164    4.683061    17.327749    6.853512    5.380760    -2.486808    -2.419428    1.722167    -7.964210    -2.330744    -0.738267    4.062302    3.902452    -0.362585    -2.882218    -1.274020    0.553905    -0.442516    -4.182075    22.709539    0.000000    0.000000    0.000000    -3.663666    -0.475868    0.300018    3.345276    4.187653    -0.712880    0.741950    -5.593680    -13.913703    0.000000    0.000000    0.000000    
-8.801243    93.621643    27.022446    -1.270018    -0.479826    90.415421    0.170388    -6.232624    -0.425379    0.508761    1.291462    -0.440386    5.828609    9.750365    1.450115    0.923007    3.091597    1.263010    13.802538    1.018527    3.356775    -10.507902    6.216386    -13.980726    2.061936    -0.951244    -1.717004    17.121906    -1.047813    -0.846440    -13.368431    1.544064    4.613346    17.329109    6.783833    5.392725    -2.438453    -2.449410    1.707143    -8.163505    -2.351190    -0.868266    4.067936    3.896746    -0.348283    -2.874183    -1.268575    0.545140    -0.487937    -4.197603    22.703579    0.000000    0.000000    0.000000    -3.647779    -0.460567    0.311280    3.332513    4.153108    -0.774654    0.771115    -5.570844    -13.869866    0.000000    0.000000    0.000000    
-8.799401    93.620438    27.024168    -1.276433    -0.474364    90.421837    0.154064    -6.261048    -0.425779    0.537102    1.334693    -0.440461    5.807430    9.686293    1.440512    0.922247    3.098503    1.250711    13.806045    0.908465    3.374076    -10.528645    6.288864    -13.928344    2.134550    -0.906890    -1.657836    17.137852    -1.010188    -0.890463    -13.430875    1.500093    4.569933    17.366386    6.712134    5.384058    -2.392640    -2.486906    1.652597    -8.135542    -2.390637    -0.869615    4.060306    3.894874    -0.356230    -2.865546    -1.275250    0.536220    -0.481234    -4.198769    22.708391    0.000000    0.000000    0.000000    -3.655665    -0.468831    0.305316    3.340331    4.165155    -0.738735    0.773804    -5.585597    -13.907355    0.000000    0.000000    0.000000    
-8.793497    93.619972    27.028374    -1.275588    -0.478569    90.437225    0.134095    -6.284361    -0.427855    0.579545    1.380488    -0.442214    5.949574    9.646621    1.436950    0.648368    3.053572    1.204563    13.812654    0.857058    3.426266    -10.542071    6.231484    -13.943087    2.056542    -0.805206    -1.622303    17.724937    -0.914551    -0.887646    -13.478072    1.451598    4.520805    17.384466    6.665466    5.359317    -2.371941    -2.485159    1.612408    -7.932831    -2.391554    -0.869590    4.065246    3.899368    -0.366014    -2.861708    -1.284270    0.547839    -0.480173    -4.195994    22.698456    0.000000    0.000000    0.000000    -3.649614    -0.458863    0.319755    3.337438    4.151494    -0.777590    0.754590    -5.570348    -13.874950    0.000000    0.000000    0.000000    
-8.789637    93.619057    27.031458    -1.274676    -0.474780    90.447166    0.121607    -6.302373    -0.424000    0.596618    1.409239    -0.438070    5.927522    9.591241    1.419970    0.677778    3.066511    1.188624    13.815030    0.884359    3.491975    -10.530591    6.167036    -14.001385    1.946269    -0.633162    -1.591751    18.545267    -0.764973    -0.972377    -13.510962    1.440617    4.476859    17.401451    6.564281    5.347239    -2.303328    -2.517395    1.575431    -8.020951    -2.417608    -0.972751    4.063603    3.907120    -0.370198    -2.859630    -1.294326    0.540924    -0.490805    -4.191767    22.700045    0.000000    0.000000    0.000000    -3.651909    -0.455643    0.328857    3.337941    4.155628    -0.766177    0.754291    -5.586492    -13.896313    0.000000    0.000000    0.000000    
